<svg width="462" height="453" viewBox="0 0 462 453" fill="none" xmlns="http://www.w3.org/2000/svg">
<g clip-path="url(#clip0_4_167)">
<path d="M345.933 439.237C345.933 446.428 295.5 452.267 233.297 452.267C171.094 452.267 120.661 446.428 120.661 439.237C120.661 432.045 171.094 426.207 233.297 426.207C295.5 426.207 345.933 432.045 345.933 439.237Z" fill="#E7E9F6"/>
<path d="M343.709 111.375H342.634C343.338 109.411 343.727 107.298 343.727 105.092C343.727 94.6941 335.275 86.2423 324.877 86.2423C314.479 86.2423 306.028 94.6941 306.028 105.092C306.028 107.298 306.435 109.411 307.14 111.375H306.065C299.577 111.375 294.258 116.676 294.258 123.164V147.203C294.258 153.69 299.577 158.991 306.065 158.991H343.69C350.177 158.991 355.478 153.69 355.478 147.203V123.182C355.497 116.695 350.196 111.375 343.709 111.375ZM311.718 105.092C311.718 97.8265 317.63 91.9324 324.877 91.9324C332.143 91.9324 338.037 97.845 338.037 105.092C338.037 107.372 337.463 109.503 336.443 111.375H313.312C312.311 109.503 311.718 107.372 311.718 105.092Z" fill="#3EC3E2"/>
<path d="M332.05 129.799C332.05 125.851 328.844 122.626 324.877 122.626C320.911 122.626 317.704 125.833 317.704 129.799C317.704 132.023 318.742 133.988 320.336 135.304L318.872 149.279H330.864L329.437 135.304C331.031 133.988 332.05 132.023 332.05 129.799Z" fill="white"/>
<path d="M349.899 323.098H334.719V381.223H349.899V323.098Z" fill="#3EC3E2"/>
<path d="M372.178 307.177H357.017V381.223H372.178V307.177Z" fill="#3EC3E2"/>
<path d="M394.475 307.177H379.314V381.223H394.475V307.177Z" fill="#3EC3E2"/>
<path d="M416.773 288.179H401.611V381.223H416.773V288.179Z" fill="#3EC3E2"/>
<path d="M439.07 260.988H423.909V381.223H439.07V260.988Z" fill="#3EC3E2"/>
<path d="M439.07 234.465L424.706 237.264L428.487 241.693L387.08 281.08H360.724L335.053 299.855L338.241 304.934L362.447 287.196H389.23L432.323 246.197L435.289 249.682L439.07 234.465Z" fill="#3EC3E2"/>
<path d="M368.54 277.503C379.368 210.484 333.816 147.376 266.797 136.548C199.778 125.72 136.67 171.272 125.842 238.291C115.014 305.31 160.565 368.418 227.585 379.246C294.604 390.074 357.712 344.522 368.54 277.503Z" fill="#E5C507"/>
<path d="M352.846 257.911C352.846 325.804 297.817 380.834 229.924 380.834C162.049 380.834 107.001 325.804 107.001 257.911C107.001 190.018 162.031 134.989 229.924 134.989C297.817 134.989 352.846 190.018 352.846 257.911Z" fill="#F7DB0F"/>
<path d="M332.662 258.06C332.662 314.591 286.826 360.427 230.276 360.427C173.745 360.427 127.89 314.591 127.89 258.06C127.89 201.529 173.726 155.692 230.276 155.692C286.807 155.674 332.662 201.529 332.662 258.06Z" fill="#F9BB0D"/>
<path d="M261.859 254.056C272.127 250.46 278.615 240.34 278.615 228.163C278.615 209.665 263.842 197.84 240.748 197.84H239.006V182.252H227.477V197.84H219.767V182.252H208.238V197.84H192.298V317.982H208.238V333.57H219.767V317.982H227.477V333.57H239.006V317.982H242.861C266.511 317.982 281.71 304.953 281.71 284.379C281.71 269.143 273.962 257.133 261.859 254.056ZM221.453 224.567H239.21C244.974 224.567 248.644 228.348 248.644 234.502C248.644 240.841 244.974 244.955 239.21 244.955H221.453V224.567ZM239.21 291.422H221.453V269.31H239.21C246.642 269.31 251.313 273.425 251.313 279.931C251.294 286.974 246.642 291.422 239.21 291.422Z" fill="#FF7610"/>
<path d="M170.131 133.858C167.369 133.858 164.774 134.525 162.439 135.656C161.605 118.882 147.796 105.537 130.818 105.537C117.14 105.537 105.518 114.23 101.07 126.37C97.8265 124.572 94.101 123.553 90.1161 123.553C77.5866 123.553 67.4295 133.71 67.4295 146.239C67.4295 158.769 77.5866 168.926 90.0975 168.926H170.112C179.806 168.926 187.646 161.067 187.646 151.392C187.665 141.717 179.806 133.858 170.131 133.858Z" fill="#3EC3E2"/>
<path d="M140.475 137.547L128.353 122.496L116.232 137.547H120.346V158.528H136.36V137.547H140.475Z" fill="white"/>
<path d="M135.23 269.885H35.7906V304.73H135.23V269.885Z" fill="#3EC3E2"/>
<path d="M47.1895 287.252C47.1895 288.772 45.9477 290.014 44.4278 290.014C42.908 290.014 41.6662 288.772 41.6662 287.252C41.6662 285.732 42.908 284.49 44.4278 284.49C45.9477 284.472 47.1895 285.713 47.1895 287.252Z" fill="white"/>
<path d="M59.0332 287.252C59.0332 288.772 57.7914 290.014 56.2716 290.014C54.7517 290.014 53.5099 288.772 53.5099 287.252C53.5099 285.732 54.7517 284.49 56.2716 284.49C57.8099 284.472 59.0332 285.713 59.0332 287.252Z" fill="white"/>
<path d="M70.8955 287.252C70.8955 288.772 69.6537 290.014 68.1338 290.014C66.614 290.014 65.3721 288.772 65.3721 287.252C65.3721 285.732 66.614 284.49 68.1338 284.49C69.6537 284.472 70.8955 285.713 70.8955 287.252Z" fill="white"/>
<path d="M82.7392 287.252C82.7392 288.772 81.4974 290.014 79.9775 290.014C78.4577 290.014 77.2159 288.772 77.2159 287.252C77.2159 285.732 78.4577 284.49 79.9775 284.49C81.4974 284.49 82.7392 285.713 82.7392 287.252Z" fill="white"/>
<path d="M129.354 287.363C129.354 288.883 128.112 290.125 126.592 290.125C125.073 290.125 123.831 288.883 123.831 287.363C123.831 285.843 125.073 284.601 126.592 284.601C128.112 284.601 129.354 285.843 129.354 287.363Z" fill="white"/>
<path d="M135.23 310.179H35.7906V345.025H135.23V310.179Z" fill="#3EC3E2"/>
<path d="M47.1895 327.528C47.1895 329.048 45.9477 330.29 44.4278 330.29C42.908 330.29 41.6662 329.048 41.6662 327.528C41.6662 326.008 42.908 324.766 44.4278 324.766C45.9477 324.766 47.1895 326.008 47.1895 327.528Z" fill="white"/>
<path d="M59.0332 327.528C59.0332 329.048 57.7914 330.29 56.2716 330.29C54.7517 330.29 53.5099 329.048 53.5099 327.528C53.5099 326.008 54.7517 324.766 56.2716 324.766C57.8099 324.766 59.0332 326.008 59.0332 327.528Z" fill="white"/>
<path d="M70.8955 327.528C70.8955 329.048 69.6537 330.29 68.1338 330.29C66.614 330.29 65.3721 329.048 65.3721 327.528C65.3721 326.008 66.614 324.766 68.1338 324.766C69.6537 324.766 70.8955 326.008 70.8955 327.528Z" fill="white"/>
<path d="M82.7392 327.528C82.7392 329.048 81.4974 330.29 79.9775 330.29C78.4577 330.29 77.2159 329.048 77.2159 327.528C77.2159 326.008 78.4577 324.766 79.9775 324.766C81.4974 324.766 82.7392 326.008 82.7392 327.528Z" fill="white"/>
<path d="M129.354 327.658C129.354 329.177 128.112 330.419 126.592 330.419C125.073 330.419 123.831 329.177 123.831 327.658C123.831 326.138 125.073 324.896 126.592 324.896C128.112 324.896 129.354 326.138 129.354 327.658Z" fill="white"/>
<path d="M135.23 350.474H35.7906V385.319H135.23V350.474Z" fill="#3EC3E2"/>
<path d="M47.1895 367.822C47.1895 369.342 45.9477 370.584 44.4278 370.584C42.908 370.584 41.6662 369.342 41.6662 367.822C41.6662 366.303 42.908 365.061 44.4278 365.061C45.9477 365.061 47.1895 366.303 47.1895 367.822Z" fill="white"/>
<path d="M59.0332 367.822C59.0332 369.342 57.7914 370.584 56.2716 370.584C54.7517 370.584 53.5099 369.342 53.5099 367.822C53.5099 366.303 54.7517 365.061 56.2716 365.061C57.8099 365.061 59.0332 366.303 59.0332 367.822Z" fill="white"/>
<path d="M70.8955 367.822C70.8955 369.342 69.6537 370.584 68.1338 370.584C66.614 370.584 65.3721 369.342 65.3721 367.822C65.3721 366.303 66.614 365.061 68.1338 365.061C69.6537 365.061 70.8955 366.303 70.8955 367.822Z" fill="white"/>
<path d="M82.7392 367.822C82.7392 369.342 81.4974 370.584 79.9775 370.584C78.4577 370.584 77.2159 369.342 77.2159 367.822C77.2159 366.303 78.4577 365.061 79.9775 365.061C81.4974 365.061 82.7392 366.303 82.7392 367.822Z" fill="white"/>
<path d="M129.354 367.952C129.354 369.472 128.112 370.714 126.592 370.714C125.073 370.714 123.831 369.472 123.831 367.952C123.831 366.432 125.073 365.191 126.592 365.191C128.112 365.191 129.354 366.414 129.354 367.952Z" fill="white"/>
<path d="M62.2212 203.085C62.2212 220.267 48.2831 234.187 31.1013 234.187C13.9381 234.187 0 220.249 0 203.085C0 185.904 13.9381 171.966 31.1199 171.966C48.3016 171.966 62.2212 185.885 62.2212 203.085Z" fill="#F7DB0F"/>
<path d="M57.0315 203.085C57.0315 217.394 45.4287 228.997 31.1199 228.997C16.811 228.997 5.20827 217.394 5.20827 203.085C5.20827 188.777 16.811 177.174 31.1199 177.174C45.4287 177.155 57.0315 188.758 57.0315 203.085Z" fill="#F9BB0D"/>
<path d="M39.201 202.103C41.7959 201.195 43.4455 198.637 43.4455 195.542C43.4455 190.852 39.7015 187.868 33.863 187.868H33.4182V183.921H30.5082V187.868H28.5435V183.921H25.6336V187.868H21.593V218.284H25.6336V222.232H28.5435V218.284H30.4897V222.232H33.3997V218.284H34.382C40.3687 218.284 44.224 214.985 44.224 209.776C44.224 205.921 42.2593 202.882 39.201 202.103ZM28.9698 194.634H33.4738C34.938 194.634 35.8648 195.597 35.8648 197.154C35.8648 198.767 34.938 199.805 33.4738 199.805H28.9698V194.634V194.634ZM33.4553 211.556H28.9513V205.958H33.4553C35.3273 205.958 36.5135 206.996 36.5135 208.646C36.5135 210.425 35.3458 211.556 33.4553 211.556Z" fill="white"/>
<path d="M235.41 109.337C260.285 109.337 280.45 89.1717 280.45 64.2971C280.45 39.4225 260.285 19.2576 235.41 19.2576C210.535 19.2576 190.371 39.4225 190.371 64.2971C190.371 89.1717 210.535 109.337 235.41 109.337Z" fill="#F7DB0F"/>
<path d="M272.924 64.2971C272.924 85.019 256.132 101.811 235.41 101.811C214.688 101.811 197.896 85.019 197.896 64.2971C197.896 43.5752 214.688 26.7827 235.41 26.7827C256.132 26.7827 272.924 43.5752 272.924 64.2971Z" fill="#F9BB0D"/>
<path d="M247.124 62.8885C250.887 61.5725 253.259 57.8656 253.259 53.3987C253.259 46.615 247.847 42.2778 239.377 42.2778H238.746V36.5691H234.52V42.2778H231.703V36.5691H227.477V42.2778H221.639V86.2979H227.477V92.0066H231.703V86.2979H234.52V92.0066H238.746V86.2979H240.155C248.811 86.2979 254.39 81.5159 254.39 73.9908C254.39 68.4118 251.554 64.0191 247.124 62.8885ZM232.315 52.0827H238.821C240.933 52.0827 242.268 53.4543 242.268 55.7155C242.268 58.0324 240.915 59.5522 238.821 59.5522H232.315V52.0827V52.0827ZM238.821 76.5857H232.315V68.486H238.821C241.545 68.486 243.25 69.9873 243.25 72.3783C243.25 74.9546 241.545 76.5857 238.821 76.5857Z" fill="white"/>
<path d="M424.576 189.147C424.576 201.769 414.345 212.001 401.723 212.001C389.1 212.001 378.869 201.769 378.869 189.147C378.869 176.525 389.1 166.294 401.723 166.294C414.326 166.294 424.576 176.525 424.576 189.147Z" fill="#F7DB0F"/>
<path d="M420.758 189.147C420.758 199.657 412.232 208.183 401.723 208.183C391.213 208.183 382.687 199.657 382.687 189.147C382.687 178.638 391.213 170.112 401.723 170.112C412.232 170.112 420.758 178.638 420.758 189.147Z" fill="#F9BB0D"/>
<path d="M407.654 188.424C409.563 187.757 410.768 185.867 410.768 183.605C410.768 180.158 408.024 177.971 403.724 177.971H403.409V175.079H401.259V177.971H399.832V175.079H397.682V177.971H394.716V200.305H397.682V203.197H399.832V200.305H401.259V203.197H403.409V200.305H404.132C408.525 200.305 411.361 197.877 411.361 194.059C411.342 191.242 409.896 188.999 407.654 188.424ZM400.129 182.957H403.428C404.503 182.957 405.189 183.661 405.189 184.81C405.189 185.996 404.503 186.756 403.428 186.756H400.129V182.957ZM403.446 195.375H400.147V191.26H403.446C404.836 191.26 405.689 192.02 405.689 193.243C405.689 194.559 404.818 195.375 403.446 195.375Z" fill="white"/>
<path d="M120.068 46.3369C120.068 39.8127 114.73 34.4932 108.225 34.4932H48.4499C41.9256 34.4932 36.6062 39.8312 36.6062 46.3369V75.9925C36.6062 82.5168 41.9442 87.8363 48.4499 87.8363H64.5566C71.0808 87.8363 79.7922 91.9695 83.9069 97.011L86.0755 99.6614C90.2087 104.703 93.582 104.11 93.582 98.3455C93.582 92.5812 98.9201 87.8548 105.426 87.8548H108.225C114.749 87.8548 120.068 82.5168 120.068 76.0111V46.3369V46.3369Z" fill="#FFC035"/>
<path d="M58.9776 59.9044C58.9776 62.2953 57.0315 64.2415 54.6405 64.2415C52.2495 64.2415 50.3034 62.2953 50.3034 59.9044C50.3034 57.4948 52.2495 55.5672 54.6405 55.5672C57.0315 55.5487 58.9776 57.4948 58.9776 59.9044Z" fill="white"/>
<path d="M82.6651 59.9044C82.6651 62.2953 80.7189 64.2415 78.3279 64.2415C75.9369 64.2415 73.9908 62.2953 73.9908 59.9044C73.9908 57.4948 75.9369 55.5672 78.3279 55.5672C80.7374 55.5487 82.6651 57.4948 82.6651 59.9044Z" fill="white"/>
<path d="M106.371 59.9044C106.371 62.2953 104.425 64.2415 102.034 64.2415C99.6429 64.2415 97.6782 62.2953 97.6782 59.9044C97.6782 57.4948 99.6244 55.5672 102.034 55.5672C104.425 55.5487 106.371 57.4948 106.371 59.9044Z" fill="white"/>
<path d="M368.249 78.6245C368.249 71.8964 373.754 66.3915 380.482 66.3915H442.202C448.931 66.3915 454.435 71.8964 454.435 78.6245V109.262C454.435 115.991 448.931 121.495 442.202 121.495H425.577C418.849 121.495 409.841 125.758 405.578 130.967L403.335 133.691C399.072 138.9 395.588 138.288 395.588 132.32C395.588 126.352 390.083 121.477 383.355 121.477H380.463C373.735 121.477 368.23 115.972 368.23 109.244V78.6245H368.249Z" fill="#F7DB0F"/>
<path d="M431.323 92.6368C431.323 95.1204 433.343 97.1222 435.808 97.1222C438.292 97.1222 440.293 95.1204 440.293 92.6368C440.293 90.1531 438.273 88.1514 435.808 88.1514C433.343 88.1514 431.323 90.1531 431.323 92.6368Z" fill="white"/>
<path d="M406.857 92.6368C406.857 95.1204 408.858 97.1222 411.342 97.1222C413.826 97.1222 415.828 95.1204 415.828 92.6368C415.828 90.1531 413.826 88.1514 411.342 88.1514C408.858 88.1514 406.857 90.1531 406.857 92.6368Z" fill="white"/>
<path d="M382.372 92.6368C382.372 95.1204 384.374 97.1222 386.858 97.1222C389.341 97.1222 391.343 95.1204 391.343 92.6368C391.343 90.1531 389.341 88.1514 386.858 88.1514C384.393 88.1514 382.372 90.1531 382.372 92.6368Z" fill="white"/>
<path d="M148.964 53.5655C143.051 53.5655 138.232 48.7464 138.232 42.8339C138.232 36.9213 143.051 32.1022 148.964 32.1022C154.877 32.1022 159.696 36.9213 159.696 42.8339C159.677 48.7464 154.877 53.5655 148.964 53.5655ZM148.964 36.8471C145.665 36.8471 142.977 39.5347 142.977 42.8339C142.977 46.133 145.665 48.8206 148.964 48.8206C152.263 48.8206 154.951 46.133 154.951 42.8339C154.932 39.5347 152.263 36.8471 148.964 36.8471Z" fill="#3EC3E2"/>
<path d="M425.317 157.861C420.591 157.861 416.736 154.005 416.736 149.279C416.736 144.553 420.591 140.697 425.317 140.697C430.044 140.697 433.899 144.553 433.899 149.279C433.899 154.005 430.044 157.861 425.317 157.861ZM425.317 144.497C422.667 144.497 420.535 146.647 420.535 149.279C420.535 151.911 422.685 154.061 425.317 154.061C427.949 154.061 430.099 151.911 430.099 149.279C430.118 146.629 427.968 144.497 425.317 144.497Z" fill="#3EC3E2"/>
<path d="M102.034 207.274C97.3075 207.274 93.4523 203.419 93.4523 198.693C93.4523 193.966 97.3075 190.111 102.034 190.111C106.76 190.111 110.615 193.966 110.615 198.693C110.615 203.419 106.76 207.274 102.034 207.274ZM102.034 193.911C99.3834 193.911 97.2519 196.061 97.2519 198.693C97.2519 201.325 99.402 203.475 102.034 203.475C104.666 203.475 106.816 201.325 106.816 198.693C106.816 196.061 104.666 193.911 102.034 193.911Z" fill="#3EC3E2"/>
<path d="M34.104 131.764H27.6909V125.369H21.2408V131.764H14.8463V138.214H21.2408V144.627H27.6909V138.214H34.104V131.764Z" fill="#F7DB0F"/>
<path d="M303.915 6.41303H297.502V0H291.051V6.41303H284.657V12.8631H291.051V19.2576H297.502V12.8631H303.915V6.41303Z" fill="#F7DB0F"/>
<path d="M461.571 186.756H456.826V182.011H452.063V186.756H447.318V191.538H452.063V196.283H456.826V191.538H461.571V186.756Z" fill="#F7DB0F"/>
<path d="M178.694 82.0905L175.673 85.1116L172.651 82.0905L169.612 85.1302L172.633 88.1514L169.612 91.1725L172.651 94.2122L175.673 91.1911L178.694 94.2122L181.752 91.1725L178.731 88.1514L181.752 85.1302L178.694 82.0905Z" fill="#F9BB0D"/>
<path d="M80.237 242.75L77.2158 245.771L74.1947 242.75L71.155 245.79L74.1761 248.829L71.155 251.85L74.1947 254.89L77.2158 251.869L80.237 254.89L83.2767 251.85L80.2555 248.829L83.2767 245.79L80.237 242.75Z" fill="#F9BB0D"/>
<path d="M397.738 228.849L394.716 231.87L391.695 228.849L388.656 231.888L391.677 234.91L388.656 237.931L391.695 240.989L394.716 237.949L397.738 240.989L400.796 237.931L397.756 234.91L400.796 231.888L397.738 228.849Z" fill="#F9BB0D"/>
<path d="M335.09 53.8435L332.05 56.8647L329.029 53.8435L325.99 56.8832L329.011 59.9044L325.99 62.9255L329.029 65.9652L332.05 62.9441L335.09 65.9652L338.13 62.9255L335.109 59.9044L338.13 56.8832L335.09 53.8435Z" fill="#F9BB0D"/>
</g>
<defs>
<clipPath id="clip0_4_167">
<rect width="461.571" height="452.285" fill="white"/>
</clipPath>
</defs>
</svg>
